<?xml version="1.0" encoding="UTF-8"?><svg id="Layer_6" xmlns="http://www.w3.org/2000/svg" viewBox="0 0 2500 2500"><path d="M731.76,825.12c68.46-7.38,136.91-14.75,205.37-22.13l211.64-22.8v828.05c.31,17.2,2.23,33.94,5.65,50.16,21.25,101.15,99.55,181.32,199.67,205.21,11.14,2.64,22.59,4.61,34.2,5.8,9.28.98,18.71,1.5,28.24,1.5s18.97-.52,28.24-1.5c11.71-1.19,23.22-3.21,34.41-5.86,100.07-23.99,178.26-104.11,199.46-205.16,3.78-17.88,5.75-36.38,5.75-55.34h.16v-880.6l126.44-13.63h.05l26.84-2.9h.05c28.35,3.06,51.3,24.93,55.6,53.27v1380c0,32.6-24.56,59.39-56.17,62.86h-900.24v-896.82h-.31c0-21.82-2.64-42.96-7.51-63.22-23.53-97.32-100.22-173.81-197.54-197.23-20.16-4.87-41.2-7.41-62.81-7.41s-42.44,2.54-62.5,7.36c-97.53,23.27-174.33,99.86-197.85,197.28-4.92,20.26-7.51,41.4-7.51,63.22v833.54c0,21.82,2.64,43.01,7.57,63.27,23.53,97.37,100.33,173.96,197.8,197.23,20.06,4.82,40.99,7.36,62.5,7.36v.78h1162.14v-.36c21.51,0,42.44-2.54,62.44-7.36,97.63-23.27,174.53-100.07,197.96-197.65,4.87-20.16,7.41-41.2,7.41-62.86V769.41c0-31.56-5.44-61.87-15.49-89.96-30.11-84.52-101.47-149.45-189.87-170.54-20-4.82-40.94-7.36-62.44-7.36-6.94,0-13.84.31-20.62.78-.21.05-.47.05-.67.1l-14.61,1.55h-.05l-110.59,11.92v-158.94c-.57-45.19-12.33-87.73-32.7-124.89-35.81-65.5-98.2-114.37-172.67-132.14-20.05-4.82-40.99-7.36-62.44-7.36s-42.54,2.59-62.65,7.41v-.16l-205.31,55.5-211.64,57.21-205.37,55.5-125.3,33.89v.16c-117.79,28.14-205.37,134.11-205.37,260.5,0,2.54,0,5.08.1,7.57.78,28.81,6.11,56.54,15.34,82.4,30.16,84.52,101.52,149.45,189.92,170.54,20.06,4.82,40.99,7.36,62.5,7.36,6.79,0,13.53-.26,20.16-.73,5.6-.6,11.19-1.21,16.79-1.81,8.62-.93,17.24-1.87,25.86-2.8ZM1479.18,1608.19c-6.06,28.61-31.4,50.06-61.82,50.06-34.93,0-63.27-28.35-63.27-63.22v-836.96l125.1-13.47v863.6ZM1479.18,538.03l-125.1,13.47-111.99,12.07-3.42.36-89.91,9.69-211.64,22.8-2.49.26-202.88,21.87-46.38,5.03v-.05c-2.12.21-4.25.31-6.43.31-34.98,0-63.27-28.29-63.27-63.22,0-29.49,20.16-54.26,47.42-61.25l68.66-18.6,172.31-46.54,33.06-8.96,209.25-56.54,2.38-.67.21-.05,205.11-55.45,43.94-11.87,2.95-.78c3.99-.98,8.14-1.55,12.39-1.71,34.88-1.45,64.31,25.75,65.71,60.63,0,.88.05,1.71.05,2.59h.05v176.61ZM731.71,2202.06h-70.27c-.98-.11-1.96-.24-2.93-.39-30.26-4.79-52.05-31.76-52.05-62.4v-12.19s0-812.09,0-812.09c-.52-3.16-.78-6.43-.78-9.74s.26-6.58.78-9.79c4.66-30.26,30.89-53.43,62.5-53.43s59.33,24.51,62.81,56.17c.31,2.28.41,4.66.41,7.05s-.1,4.72-.41,7.05v826.96l-.05,62.81Z" fill="#111a50"/></svg>