<?xml version="1.0" encoding="UTF-8"?><svg xmlns="http://www.w3.org/2000/svg" viewBox="0 0 2500 2535"><g id="Layer_11"><path d="M1743.6,1129.69c-14.05-58.59-60.22-104.71-118.84-118.69-12.01-2.89-24.56-4.41-37.45-4.41h-76.82c-13.06,0-25.75,1.56-37.9,4.51-58.42,14.1-104.39,60.13-118.39,118.59-2.92,12.07-4.45,24.68-4.45,37.65h-.25v204.23c-.06-1.52-.07-3.04-.07-4.57v-.49h-.21c0,20.93-16.97,37.9-37.9,37.9s-37.56-16.61-37.9-37.25c-.01-.22-.01-.43-.01-.66s0-.45.01-.65v-198.32h-.03c0-13.04-1.55-25.71-4.48-37.84-14.08-58.52-60.11-104.58-118.6-118.71-10.24-2.5-20.86-3.99-31.77-4.39h-12.45c-10.94.4-21.6,1.91-31.87,4.41-58.44,14.17-104.43,60.22-118.5,118.69-2.93,12.13-4.48,24.8-4.48,37.84h-.12v199.26h-.04c0,21.09-17.09,38.18-38.18,38.18h-198.9c-20.44,0-37.13-16.03-38.15-36.22-.03-.66-.04-1.31-.04-1.97s.01-1.31.04-1.97v-35.94h33.47c1.4-.18,2.83-.28,4.29-.28.13-.01.27-.01.4-.01s.27,0,.4.01c12.92-.03,25.49-1.59,37.53-4.51,1.99-.46,3.99-.98,5.95-1.53,6.22-1.77,12.28-3.89,18.18-6.36,25.55-10.66,47.74-27.73,64.62-49.19,8.81-11.21,16.18-23.61,21.79-36.93,2.55-6.03,4.72-12.24,6.54-18.61.52-1.88,1.03-3.78,1.47-5.7,2.84-11.61,4.41-23.71,4.56-36.16v-4.15c-.13-12.31-1.67-24.28-4.45-35.77-14.08-58.53-60.14-104.61-118.66-118.72-10.23-2.49-20.83-3.97-31.71-4.38h-12.45c-10.96.4-21.63,1.92-31.93,4.44-58.39,14.2-104.46,60.28-118.66,118.66-2.52,10.29-4.03,20.96-4.44,31.92v204.9h.18c0,13.25,1.59,26.13,4.63,38.47,2.02,8.32,4.7,16.38,7.96,24.15h0c3.35,7.98,7.32,15.62,11.86,22.87,17.54,28.14,43.48,50.5,74.3,63.52,7.77,3.27,15.84,5.95,24.16,7.98,12.22,3.01,25.01,4.59,38.15,4.59h198.9v-.49c13.17,0,25.98-1.58,38.23-4.59,8.25-1.98,16.24-4.63,23.94-7.85h.01c30.83-12.92,56.78-35.15,74.34-63.16,4.63-7.34,8.65-15.08,12.04-23.16,3.23-7.67,5.87-15.63,7.86-23.85,3.04-12.33,4.64-25.2,4.64-38.47h.25v-37.62h76.09v41.77c.3,11.81,1.86,23.28,4.58,34.31,2.01,8.29,4.69,16.33,7.95,24.06,3.36,8.01,7.37,15.68,11.95,22.96,17.63,28.12,43.71,50.39,74.67,63.28,7.7,3.22,15.71,5.84,23.95,7.82,11.78,2.86,24.06,4.87,36.68,4.99h2.46c12.73-.12,25.1-2.16,36.95-5.06,8.37-2.02,16.48-4.7,24.27-7.99,13.28-5.58,25.65-12.89,36.83-21.68,11.27,8.95,23.77,16.39,37.22,22.08,7.95,3.36,16.23,6.1,24.79,8.16,1.85.45,3.69.86,5.57,1.24,10.45,2.14,21.26,3.26,32.33,3.26h114.27v230.64c.39,2.14.58,4.36.58,6.61s-.19,4.47-.58,6.61c-3.13,17.86-18.71,31.43-37.45,31.43h-76.82c-19.96,0-36.32-15.38-37.9-34.92-.09-1.03-.13-2.07-.13-3.11s.04-2.08.13-3.11v-20.39c0-5.02-.61-9.88-1.76-14.54-3.75-15.27-13.26-28.31-26.08-36.73-9.75-6.4-21.39-10.12-33.88-10.12-21.15,0-39.82,10.7-50.85,27-4.02,5.95-7.04,12.65-8.78,19.84-1.15,4.66-1.74,9.53-1.74,14.54,0,3.07.22,6.09.67,9.04-.39,4.51-.58,9.07-.58,13.67,0,13.4,1.64,26.41,4.73,38.84,14.37,57.94,60.17,103.48,118.27,117.44,12.1,2.92,24.74,4.47,37.74,4.47v1.21h76.98v-1.37c12.89,0,25.44-1.52,37.45-4.41,58.13-13.87,103.98-59.38,118.36-117.34,3.11-12.43,4.75-25.44,4.75-38.84v-604.64c-.46-10.35-1.92-20.44-4.27-30.19ZM675.83,1167.69h.07c0-20.25,15.79-36.8,35.73-38.01.77-.04,1.56-.07,2.35-.07s1.58.03,2.35.07c18.83,1.15,33.97,15.97,35.58,34.69.1,1.1.15,2.2.15,3.32s-.04,2.22-.15,3.32c-1.55,17.95-15.54,32.36-33.33,34.49,1.92.04,3.84.13,5.75.27h-9.69c-.22.01-.43.01-.65.01s-.43,0-.65-.01h-37.5v-38.08ZM1150.3,1205.77h-76.09v-38.08h.1c0-20.98,17.02-37.99,37.99-37.99s37.99,17.02,37.99,37.99v38.08ZM1624.76,1369.27c-1.21,19.92-17.74,35.7-37.96,35.7h-76.23c-20.98,0-37.98-17-37.98-37.98v-199.48c0-20.14,15.72-36.62,35.56-37.83.77-.04,1.55-.07,2.34-.07s1.56.03,2.34.07h69.89c1.31-.13,2.65-.21,4-.21s2.69.07,4,.21c19.13,2.01,34.03,18.18,34.03,37.83v197.05c.04.77.07,1.56.07,2.35s-.03,1.58-.07,2.35Z" fill="#111a50"/><path d="M353.53,924.57c.03-.64.04-1.3.04-1.95s-.01-1.31-.04-1.95c-1.01-19.8-17.21-35.59-37.19-35.94-.22-.01-.46-.01-.68-.01-20.93,0-38.21,16.97-38.21,37.9v122.1c0,20.93,17.28,37.9,38.21,37.9-1.88,0-3.75.03-5.61.12-.09,0-.19-.01-.28-.01-.1,0-.22.01-.33.03h1.22c1.67.06,3.33.09,5,.09s3.33-.03,5-.09h1.22c10.85.4,21.44,1.88,31.65,4.35,8.52,2.04,16.78,4.76,24.7,8.11,25.08,10.57,46.92,27.3,63.63,48.29,9.07,11.36,16.61,23.98,22.34,37.56,3.38,7.95,6.12,16.24,8.17,24.79,2.29,9.44,3.74,19.2,4.27,29.22v132.06h-.3c0,13.06-1.56,25.77-4.51,37.92-7.07,29.31-22.18,55.5-42.86,76.09-20.47,20.38-46.42,35.3-75.45,42.32-12.19,2.98-24.94,4.54-38.04,4.54s-25.86-1.56-38.05-4.54c-29.01-7.03-54.96-21.94-75.45-42.32-20.68-20.59-35.79-46.77-42.86-76.09-2.95-12.15-4.51-24.86-4.51-37.92,0-5.09.24-10.12.71-15.1,1.4-15.17,4.91-29.71,10.23-43.35.49-.71,1-1.41,1.53-2.1,11.18-14.84,28.95-24.43,48.98-24.43,33.87,0,61.33,27.47,61.33,61.33h.03v23.64h.31c0,20.95,16.97,37.92,37.9,37.92s37.2-16.27,37.87-36.62c.03-.43.03-.86.03-1.29s0-.86-.03-1.3v-120.36c.03-.43.03-.86.03-1.29s0-.86-.03-1.3c-.67-20.25-17.22-36.46-37.6-36.61v-.43h-.64v-.43c-13.04,0-25.71-1.56-37.84-4.51-8.29-1.98-16.32-4.63-24.04-7.88-25.44-10.64-47.55-27.66-64.33-49.05-8.89-11.31-16.29-23.85-21.88-37.32-3.2-7.68-5.82-15.68-7.8-23.91-2.92-12.09-4.47-24.71-4.47-37.69h-.6v-127.77c.28-11.58,1.8-22.87,4.42-33.72h0s0-.01.01-.01c-.01-.01-.01-.04.01-.06,14.1-58.55,60.14-104.65,118.66-118.84,8.86-2.17,18.01-3.59,27.39-4.2h21.65c9.26.6,18.3,1.99,27.05,4.11,58.68,14.1,104.88,60.26,119,118.93.03.01.03.04.01.06h.01c2.08,8.63,3.47,17.52,4.08,26.63v22.54c-.12,2.05-.31,4.08-.54,6.1,0,0,.01.01,0,.03-1.44,13.64-4.61,26.77-9.27,39.17,0,.01-.01.03-.01.04-1.12,1.74-2.31,3.42-3.59,5.03-11.24,14.22-28.63,23.33-48.14,23.33-33.88,0-61.33-27.45-61.33-61.33h-.22v-20.53Z" fill="#111a50"/><path d="M1947.34,665.85c-2.2-32.04-28.88-57.31-61.45-57.31s-61.6,27.57-61.6,61.6l-.04,14.16v682.87h.09c0,13.01,1.56,25.68,4.51,37.81,2.02,8.38,4.72,16.49,8.02,24.31,3.32,7.9,7.28,15.5,11.79,22.7,17.57,28.15,43.62,50.51,74.51,63.54,7.77,3.26,15.84,5.94,24.18,7.96,12.24,3.01,25.01,4.59,38.14,4.59h271.32v-.51h35.52c28.73-3.75,51.23-27.3,53.34-56.52v-9.02c-.89-12.33-5.42-23.64-12.5-32.88-11.24-14.69-28.95-24.16-48.89-24.16v-.51h-27.47v.51h-72.13c-21.09,0-38.2-17.09-38.2-38.18h-.22v-37.9h33.73c1.4-.18,2.83-.28,4.29-.28.13-.01.27-.01.4-.01s.27,0,.4.01c12.91-.03,25.46-1.58,37.47-4.5,8.52-2.04,16.76-4.76,24.68-8.1,3.25-1.37,6.45-2.84,9.57-4.44,21.32-10.67,39.94-25.96,54.56-44.56,8.81-11.21,16.18-23.61,21.79-36.93,3.38-8.02,6.13-16.38,8.19-24.99,2.52-10.49,3.99-21.39,4.32-32.57v-9.97c-.34-11.58-1.92-22.87-4.6-33.7-11.37-46.18-42.68-84.51-84.26-105.35-10.78-5.42-22.26-9.66-34.25-12.53-8.9-2.16-18.1-3.57-27.52-4.15h-20.69c-9.6.6-19,2.04-28.08,4.27-58.39,14.25-104.47,60.23-118.6,118.62-2.95,12.13-4.51,24.8-4.51,37.84v237.44h-37.92v-.25c-20.29,0-36.86-15.94-37.89-35.98-.03-.64-.05-1.29-.05-1.95s.02-1.31.05-1.95v-358.04h-.28v-76.09h.28l.21-246.42-.21-18.44ZM2146.26,1167.51c0-20.14,16.2-36.62,36.09-37.83.77-.04,1.55-.07,2.34-.07s1.56.03,2.34.07c19.41,1.18,34.88,16.99,35.53,36.53.03.43.03.86.03,1.29s0,.86-.03,1.3c-.67,20.35-17.37,36.62-37.87,36.62,3.48,0,6.92.1,10.35.34h-48.77v-38.26Z" fill="#111a50"/></g><g id="Layer_7"><path d="M373.34,2345.87l-25.65-101.1h13.8l12,51.15c3,12.6,5.7,25.2,7.5,34.95h.3c1.65-10.05,4.8-22.05,8.25-35.1l13.5-51h13.65l12.3,51.3c2.85,12,5.55,24,7.05,34.65h.3c2.1-11.1,4.95-22.35,8.1-34.95l13.35-51h13.35l-28.65,101.1h-13.65l-12.75-52.65c-3.15-12.9-5.25-22.8-6.6-33h-.3c-1.8,10.05-4.05,19.95-7.8,33l-14.4,52.65h-13.65Z" fill="#fff"/><path d="M570.14,2294.27c0,34.8-21.15,53.25-46.95,53.25s-45.45-20.7-45.45-51.3c0-32.1,19.95-53.1,46.95-53.1s45.45,21.15,45.45,51.15ZM491.69,2295.92c0,21.6,11.7,40.95,32.25,40.95s32.4-19.05,32.4-42c0-20.1-10.5-41.1-32.25-41.1s-32.4,19.95-32.4,42.15Z" fill="#fff"/><path d="M587.09,2246.13c6.6-1.35,16.05-2.1,25.05-2.1,13.95,0,22.95,2.55,29.25,8.25,5.1,4.5,7.95,11.4,7.95,19.2,0,13.35-8.4,22.2-19.05,25.8v.45c7.8,2.7,12.45,9.9,14.85,20.4,3.3,14.1,5.7,23.85,7.8,27.75h-13.5c-1.65-2.85-3.9-11.55-6.75-24.15-3-13.95-8.4-19.2-20.25-19.65h-12.3v43.8h-13.05v-99.75ZM600.14,2292.17h13.35c13.95,0,22.8-7.65,22.8-19.2,0-13.05-9.45-18.75-23.25-18.9-6.3,0-10.8.6-12.9,1.2v36.9Z" fill="#fff"/><path d="M667.79,2246.13c7.95-1.2,17.4-2.1,27.75-2.1,18.75,0,32.1,4.35,40.95,12.6,9,8.25,14.25,19.95,14.25,36.3s-5.1,30-14.55,39.3c-9.45,9.45-25.05,14.55-44.7,14.55-9.3,0-17.1-.45-23.7-1.2v-99.45ZM680.84,2335.52c3.3.6,8.1.75,13.2.75,27.9,0,43.05-15.6,43.05-42.9.15-23.85-13.35-39-40.95-39-6.75,0-11.85.6-15.3,1.35v79.8Z" fill="#fff"/><path d="M852.88,2301.47c-.75-14.1-1.65-31.05-1.5-43.65h-.45c-3.45,11.85-7.65,24.45-12.75,38.4l-17.85,49.05h-9.9l-16.35-48.15c-4.8-14.25-8.85-27.3-11.7-39.3h-.3c-.3,12.6-1.05,29.55-1.95,44.7l-2.7,43.35h-12.45l7.05-101.1h16.65l17.25,48.9c4.2,12.45,7.65,23.55,10.2,34.05h.45c2.55-10.2,6.15-21.3,10.65-34.05l18-48.9h16.65l6.3,101.1h-12.75l-2.55-44.4Z" fill="#fff"/><path d="M903.14,2314.07l-10.5,31.8h-13.5l34.35-101.1h15.75l34.5,101.1h-13.95l-10.8-31.8h-35.85ZM936.28,2303.87l-9.9-29.1c-2.25-6.6-3.75-12.6-5.25-18.45h-.3c-1.5,6-3.15,12.15-5.1,18.3l-9.9,29.25h30.45Z" fill="#fff"/><path d="M978.59,2246.13c6.6-1.35,16.05-2.1,25.05-2.1,13.95,0,22.95,2.55,29.25,8.25,5.1,4.5,7.95,11.4,7.95,19.2,0,13.35-8.4,22.2-19.05,25.8v.45c7.8,2.7,12.45,9.9,14.85,20.4,3.3,14.1,5.7,23.85,7.8,27.75h-13.5c-1.65-2.85-3.9-11.55-6.75-24.15-3-13.95-8.4-19.2-20.25-19.65h-12.3v43.8h-13.05v-99.75ZM991.64,2292.17h13.35c13.95,0,22.8-7.65,22.8-19.2,0-13.05-9.45-18.75-23.25-18.9-6.3,0-10.8.6-12.9,1.2v36.9Z" fill="#fff"/><path d="M1059.29,2244.78h13.05v48.75h.45c2.7-3.9,5.4-7.5,7.95-10.8l30.9-37.95h16.2l-36.6,42.9,39.45,58.2h-15.45l-33.3-49.65-9.6,11.1v38.55h-13.05v-101.1Z" fill="#fff"/></g></svg>