<?xml version="1.0" encoding="UTF-8"?><svg id="Layer_7" xmlns="http://www.w3.org/2000/svg" viewBox="0 0 2000 2000"><path d="M1564.16,149.67H435.84c-158.04,0-286.17,128.12-286.17,286.17v1128.34c0,158.04,128.12,286.15,286.17,286.15h1128.32c158.04,0,286.17-128.11,286.17-286.15V435.84c0-158.04-128.12-286.17-286.17-286.17ZM745.15,674.07l29.82-8.09,74.81-20.18,14.38-3.9,90.85-24.56,1.04-.28.1-.03,89.06-24.08,19.08-5.15,1.27-.35c1.74-.41,3.54-.67,5.4-.74,3.16-.11,6.18.28,9.05,1.15.84.25,1.66.54,2.47.87,1.6.66,3.13,1.46,4.56,2.4.72.48,1.41.97,2.09,1.5,6.04,4.8,10.02,12.11,10.36,20.41,0,.38.03.72.03,1.14v76.67l-54.3,5.86-48.64,5.25-1.48.15-39.03,4.21-91.89,9.9h-.11l-.99.12-79.53,8.57-8.55.92-20.13,2.19v-.03c-.94.1-1.86.15-2.8.15-7.6,0-14.48-3.08-19.43-8.04-4.98-4.97-8.06-11.84-8.06-19.41,0-12.8,8.77-23.57,20.59-26.6Z" fill="#fff"/><path d="M1099.51,780.56v374.98c-2.62,12.43-13.64,21.74-26.83,21.74-15.18,0-27.47-12.31-27.47-27.45v-363.43l54.31-5.85Z" fill="#ff914d"/><path d="M1361.88,752.26c-13.08-36.7-44.05-64.89-82.44-74.04-8.69-2.11-17.78-3.21-27.11-3.21-3.01,0-6,.13-8.96.35-.1.02-.2.02-.28.03l-6.35.69h-.03l-48.02,5.16v-69.02c-.25-19.61-5.36-38.08-14.2-54.22-15.56-28.44-42.64-49.68-74.99-57.39-8.69-2.07-17.78-3.19-27.11-3.19s-18.46,1.12-27.19,3.22v-.07l-89.15,24.1-91.89,24.85-89.19,24.08-54.41,14.72v.07c-51.14,12.22-89.19,58.23-89.19,113.11,0,1.1,0,2.22.05,3.29.36,12.52,2.66,24.56,6.66,35.78,13.11,36.7,44.1,64.91,82.48,74.05,8.7,2.11,17.8,3.21,27.12,3.21,2.96,0,5.89-.12,8.77-.33,2.43-.26,4.85-.51,7.3-.77,3.73-.41,7.47-.82,11.22-1.22,29.72-3.21,59.45-6.42,89.19-9.61l91.89-9.9v359.55c.13,7.47.95,14.74,2.45,21.78,9.23,43.94,43.23,78.74,86.7,89.12,4.84,1.13,9.8,2.01,14.84,2.52,4.03.43,8.13.66,12.27.66s8.24-.23,12.27-.66c5.08-.51,10.08-1.4,14.92-2.55,43.46-10.41,77.43-45.2,86.62-89.09,1.64-7.76,2.5-15.79,2.5-24.03h.07v-382.36l54.91-5.92h.02l11.66-1.25h.02c12.32,1.32,22.29,10.82,24.15,23.11v599.25c0,14.13-10.66,25.78-24.39,27.29h-390.88v-389.42h-.15c0-9.47-1.15-18.65-3.26-27.45-10.23-42.26-43.52-75.47-85.78-85.65-8.75-2.11-17.88-3.21-27.29-3.21s-18.42,1.1-27.12,3.19c-42.36,10.1-75.7,43.36-85.9,85.67-2.15,8.8-3.29,17.98-3.29,27.45v361.95c0,9.48,1.17,18.65,3.29,27.47,10.21,42.27,43.59,75.53,85.9,85.63,8.7,2.09,17.8,3.21,27.12,3.21v.33h504.65v-.15c9.33,0,18.42-1.12,27.11-3.21,42.39-10.1,75.78-43.44,85.96-85.82,2.11-8.77,3.22-17.9,3.22-27.29v-594.79c0-13.72-2.37-26.88-6.74-39.08ZM1099.5,1155.54c-2.62,12.42-13.64,21.75-26.83,21.75-15.17,0-27.47-12.32-27.47-27.45v-363.43l54.3-5.86v374.99ZM1099.5,690.85l-54.3,5.86-48.64,5.25-1.48.15-39.03,4.21-91.89,9.9h-.11l-.99.12-79.53,8.57-8.55.92-20.13,2.19v-.03c-.94.1-1.86.15-2.8.15-7.6,0-14.48-3.08-19.43-8.04-4.98-4.97-8.06-11.84-8.06-19.41,0-12.8,8.77-23.57,20.59-26.6l29.82-8.09,74.81-20.18,14.38-3.9,90.85-24.56,1.04-.28.1-.03,89.06-24.08,19.08-5.15,1.27-.35c1.74-.41,3.54-.67,5.4-.74,3.16-.11,6.18.28,9.05,1.15.84.25,1.66.54,2.47.87,1.6.66,3.13,1.46,4.56,2.4.72.48,1.41.97,2.09,1.5,6.04,4.8,10.02,12.11,10.36,20.41,0,.38.03.72.03,1.14v76.67ZM774.97,1027.06v359.09h-.02v27.45h-27.45c-1.05,0-2.07-.05-3.06-.18-11.98-1.33-21.63-10.33-23.88-21.99-.35-1.71-.51-3.49-.51-5.28s.16-3.59.51-5.3v-352.62c-.21-1.37-.35-2.78-.35-4.23s.13-2.86.35-4.26c2.02-13.14,13.41-23.19,27.12-23.19s25.78,10.64,27.29,24.39c.13.99.18,2.02.18,3.06s-.05,2.06-.18,3.06Z" fill="#111a50"/><path d="M1099.5,614.18v76.67l-54.3,5.86-48.64,5.25-1.48.15-39.03,4.21-91.89,9.9h-.11l-.99.12-79.53,8.57-8.55.92-20.13,2.19v-.03c-.94.1-1.86.15-2.8.15-7.6,0-14.48-3.08-19.43-8.04-4.98-4.97-8.06-11.84-8.06-19.41,0-12.8,8.77-23.57,20.59-26.6l29.82-8.09,74.81-20.18,14.38-3.9,90.85-24.56,1.04-.28.1-.03,89.06-24.08,19.08-5.15,1.27-.35c1.74-.41,3.54-.67,5.4-.74,3.16-.11,6.18.28,9.05,1.15.84.25,1.66.54,2.47.87,1.6.66,3.13,1.46,4.56,2.4.72.48,1.41.97,2.09,1.5,6.04,4.8,10.02,12.11,10.36,20.41,0,.38.03.72.03,1.14Z" fill="#8dd3fa"/><path d="M775.16,1024c0,1.03-.05,2.05-.18,3.05v359.09h-.02v27.45h-27.45c-1.04,0-2.07-.05-3.06-.18-11.97-1.33-21.62-10.32-23.88-21.98-.36-1.71-.52-3.5-.52-5.28s.16-3.58.52-5.3v-352.63c-.22-1.36-.34-2.77-.34-4.22s.13-2.87.34-4.26c2.03-13.14,13.41-23.2,27.13-23.2s25.77,10.65,27.28,24.4c.14.99.18,2.02.18,3.06Z" fill="#ff914d"/></svg>