<?xml version="1.0" encoding="UTF-8"?><svg id="Layer_6" xmlns="http://www.w3.org/2000/svg" viewBox="0 0 2500 2500"><path d="M733.1,1305.14c0,2.39-.11,4.72-.42,7.04v825.51h-.04c0,32.48-24.53,59.23-56.09,62.7-2.33.31-4.65.42-7.02.42s-4.76-.11-7.04-.42c-.99-.11-1.95-.24-2.92-.39-30.22-4.78-51.97-31.71-51.97-62.3v-822.81c-.5-3.16-.77-6.43-.77-9.74s.26-6.56.77-9.77c4.65-30.22,30.83-53.33,62.39-53.33s59.23,24.47,62.7,56.07c.31,2.28.42,4.65.42,7.02Z" fill="#ff914d"/><path d="M1478.77,745.49v862.07c-6.06,28.55-31.34,49.97-61.71,49.97-34.87,0-63.16-28.31-63.16-63.11v-835.49l124.87-13.43Z" fill="#ff914d"/><path d="M2081.95,680.47c-30.07-84.38-101.3-149.2-189.54-170.25-19.97-4.81-40.88-7.35-62.35-7.35-6.93,0-13.8.31-20.58.79-.2.04-.46.04-.68.09l-14.57,1.56h-.07l-110.38,11.89v-158.64c-.57-45.12-12.31-87.58-32.63-124.67-35.75-65.4-98.03-114.18-172.38-131.91-20.01-4.83-40.91-7.35-62.32-7.35s-42.46,2.59-62.54,7.4v-.15l-204.94,55.41-211.26,57.1-205.01,55.39-125.09,33.84v.15c-117.58,28.09-204.99,133.89-204.99,260.05,0,2.52,0,5.07.09,7.55.79,28.77,6.1,56.44,15.32,82.25,30.11,84.38,101.34,149.18,189.58,170.25,20.01,4.81,40.93,7.35,62.39,7.35,6.78,0,13.5-.26,20.12-.72,5.6-.61,11.17-1.23,16.77-1.82,8.6-.92,17.21-1.87,25.81-2.79,68.34-7.37,136.67-14.73,205.01-22.1l211.26-22.76v826.58c.31,17.18,2.22,33.88,5.64,50.08,21.2,100.97,99.37,181,199.31,204.86,11.13,2.63,22.56,4.59,34.15,5.79,9.26.97,18.68,1.49,28.18,1.49s18.94-.53,28.2-1.49c11.7-1.21,23.17-3.23,34.34-5.86,99.89-23.94,177.95-103.91,199.11-204.79,3.77-17.84,5.75-36.32,5.75-55.26h.15v-879.03l126.23-13.61h.04l26.79-2.9h.04c28.31,3.05,51.22,24.89,55.52,53.17v1377.55c0,32.54-24.53,59.3-56.09,62.76h-898.63v-895.25h-.31c0-21.77-2.66-42.88-7.51-63.09-23.48-97.15-100.05-173.52-197.2-196.89-20.12-4.87-41.13-7.4-62.7-7.4s-42.37,2.52-62.39,7.35c-97.35,23.22-174.02,99.67-197.51,196.93-4.92,20.21-7.48,41.32-7.48,63.09v832.07c0,21.79,2.63,42.95,7.55,63.18,23.48,97.19,100.13,173.65,197.44,196.87,20.01,4.81,40.93,7.35,62.39,7.35v.77h1160.08v-.35c21.46,0,42.38-2.55,62.35-7.35,97.46-23.22,174.22-99.89,197.59-197.29,4.87-20.12,7.4-41.12,7.4-62.76V770.27c0-31.51-5.42-61.78-15.45-89.8ZM1478.77,1607.56c-6.06,28.55-31.34,49.97-61.71,49.97-34.87,0-63.16-28.31-63.16-63.11v-835.49l124.87-13.43v862.07ZM1478.77,539.3l-124.87,13.45-111.79,12.05-3.42.35-89.73,9.68-211.26,22.76-2.48.26-202.53,21.84-46.3,5v-.04c-2.11.22-4.24.31-6.41.31-34.91,0-63.16-28.24-63.16-63.11,0-29.43,20.12-54.16,47.34-61.14l68.53-18.57,172-46.46,33.01-8.95,208.87-56.42,2.39-.68.2-.04,204.75-55.37,43.87-11.83,2.94-.79c3.99-.99,8.12-1.56,12.38-1.71,34.8-1.45,64.19,25.72,65.59,60.52,0,.88.04,1.71.04,2.59h.04v176.31ZM732.68,1312.18v825.51h-.04c0,32.48-24.53,59.23-56.09,62.7-2.33.31-4.65.42-7.02.42s-4.76-.11-7.04-.42c-.99-.11-1.95-.24-2.92-.39-30.22-4.78-51.97-31.71-51.97-62.3v-822.81c-.5-3.16-.77-6.43-.77-9.74s.26-6.56.77-9.77c4.65-30.22,30.83-53.33,62.39-53.33s59.23,24.47,62.7,56.07c.31,2.28.42,4.65.42,7.02s-.11,4.72-.42,7.04Z" fill="#111a50"/><path d="M1478.77,362.99v176.31l-124.87,13.45-111.79,12.05-3.42.35-89.73,9.68-211.26,22.76-2.48.26-202.53,21.84-46.3,5v-.04c-2.11.22-4.24.31-6.41.31-34.91,0-63.16-28.24-63.16-63.11,0-29.43,20.12-54.16,47.34-61.14l68.53-18.57,172-46.46,33.01-8.95,208.87-56.42,2.39-.68.2-.04,204.75-55.37,43.87-11.83,2.94-.79c3.99-.99,8.12-1.56,12.38-1.71,34.8-1.45,64.19,25.72,65.59,60.52,0,.88.04,1.71.04,2.59h.04Z" fill="#8dd3fa"/></svg>