<?xml version="1.0" encoding="UTF-8"?><svg id="Layer_7" xmlns="http://www.w3.org/2000/svg" viewBox="0 0 2500 3000"><path d="M1709.1,2122.74c-13.07-54.5-56.01-97.39-110.53-110.39-11.17-2.69-22.85-4.1-34.84-4.1h-71.45c-12.14,0-23.95,1.45-35.25,4.2-54.33,13.11-97.09,55.92-110.12,110.3-2.71,11.23-4.14,22.96-4.14,35.02h-.24v189.95c-.06-1.41-.07-2.82-.07-4.25v-.46h-.19c0,19.47-15.78,35.25-35.25,35.25s-34.93-15.45-35.25-34.64c-.01-.21-.01-.4-.01-.61s0-.42.01-.61v-184.46h-.03c0-12.13-1.44-23.91-4.17-35.2-13.1-54.43-55.91-97.27-110.31-110.41-9.53-2.33-19.4-3.71-29.55-4.08h-11.58c-10.18.37-20.09,1.77-29.64,4.1-54.36,13.18-97.13,56.01-110.21,110.39-2.73,11.28-4.17,23.07-4.17,35.2h-.11v185.33h-.04c0,19.62-15.9,35.52-35.52,35.52h-185c-19.01,0-34.53-14.91-35.49-33.69-.03-.61-.04-1.22-.04-1.83s.01-1.22.04-1.83v-33.42h31.13c1.3-.17,2.63-.26,3.99-.26.12-.01.25-.01.37-.01s.25,0,.37.01c12.02-.03,23.7-1.48,34.91-4.2,1.86-.43,3.71-.91,5.54-1.43,5.79-1.65,11.42-3.61,16.91-5.91,23.76-9.91,44.4-25.8,60.11-45.75,8.2-10.43,15.05-21.96,20.27-34.35,2.37-5.61,4.39-11.38,6.08-17.31.48-1.74.96-3.52,1.37-5.3,2.64-10.8,4.1-22.06,4.24-33.63v-3.86c-.12-11.45-1.55-22.58-4.14-33.27-13.1-54.44-55.94-97.3-110.37-110.42-9.51-2.31-19.37-3.7-29.49-4.07h-11.58c-10.19.37-20.12,1.79-29.7,4.13-54.3,13.21-97.16,56.06-110.37,110.37-2.34,9.57-3.75,19.5-4.13,29.69v190.58h.17c0,12.32,1.48,24.3,4.31,35.78,1.88,7.74,4.38,15.23,7.41,22.46h0c3.12,7.42,6.81,14.52,11.04,21.27,16.31,26.17,40.44,46.97,69.11,59.08,7.23,3.05,14.73,5.54,22.47,7.42,11.37,2.8,23.26,4.26,35.49,4.26h185v-.46c12.25,0,24.16-1.47,35.56-4.26,7.67-1.84,15.11-4.31,22.26-7.3h.01c28.68-12.02,52.81-32.69,69.15-58.75,4.31-6.83,8.04-14.03,11.2-21.54,3-7.13,5.46-14.54,7.31-22.18,2.82-11.46,4.32-23.44,4.32-35.78h.24v-34.99h70.77v38.85c.28,10.98,1.73,21.66,4.26,31.92,1.87,7.71,4.36,15.19,7.39,22.38,3.13,7.45,6.85,14.58,11.12,21.35,16.39,26.16,40.65,46.87,69.45,58.86,7.16,2.99,14.61,5.43,22.28,7.27,10.95,2.66,22.38,4.53,34.12,4.64h2.28c11.84-.11,23.34-2.01,34.37-4.71,7.78-1.88,15.33-4.38,22.57-7.44,12.35-5.19,23.86-11.99,34.26-20.16,10.48,8.32,22.11,15.24,34.62,20.53,7.39,3.13,15.09,5.68,23.05,7.59,1.72.42,3.43.8,5.18,1.15,9.72,1.99,19.77,3.03,30.07,3.03h106.28v214.52c.36,1.99.54,4.06.54,6.15s-.18,4.15-.54,6.15c-2.91,16.62-17.4,29.23-34.84,29.23h-71.45c-18.57,0-33.78-14.3-35.25-32.48-.08-.96-.12-1.92-.12-2.89s.04-1.94.12-2.89v-18.97c0-4.67-.57-9.19-1.63-13.53-3.49-14.21-12.34-26.34-24.26-34.16-9.07-5.95-19.9-9.42-31.51-9.42-19.68,0-37.04,9.96-47.3,25.12-3.74,5.54-6.55,11.77-8.17,18.46-1.07,4.33-1.62,8.86-1.62,13.53,0,2.85.21,5.66.62,8.4-.36,4.2-.54,8.43-.54,12.71,0,12.46,1.52,24.56,4.4,36.12,13.36,53.89,55.97,96.24,110.01,109.23,11.26,2.71,23.01,4.15,35.1,4.15v1.12h71.6v-1.27c11.99,0,23.66-1.41,34.84-4.1,54.07-12.9,96.71-55.23,110.09-109.13,2.89-11.56,4.42-23.66,4.42-36.12v-562.37c-.43-9.62-1.79-19.01-3.97-28.08ZM715.96,2158.09h.07c0-18.83,14.69-34.23,33.23-35.35.72-.04,1.45-.07,2.19-.07s1.47.03,2.19.07c17.52,1.07,31.6,14.86,33.09,32.26.1,1.02.14,2.05.14,3.09s-.04,2.06-.14,3.09c-1.44,16.7-14.46,30.1-31,32.08,1.79.04,3.57.12,5.34.25h-9.01c-.21.01-.4.01-.61.01s-.4,0-.61-.01h-34.88v-35.42ZM1157.27,2193.5h-70.77v-35.42h.1c0-19.51,15.83-35.34,35.34-35.34s35.34,15.83,35.34,35.34v35.42ZM1598.57,2345.57c-1.12,18.53-16.5,33.2-35.31,33.2h-70.91c-19.51,0-35.32-15.81-35.32-35.32v-185.54c0-18.73,14.62-34.06,33.08-35.18.72-.04,1.44-.07,2.17-.07s1.45.03,2.17.07h65.01c1.22-.12,2.46-.19,3.72-.19s2.51.07,3.72.19c17.79,1.87,31.65,16.91,31.65,35.18v183.28c.04.72.07,1.45.07,2.19s-.03,1.47-.07,2.19Z" fill="#111a50"/><path d="M416.2,1931.96c.03-.6.04-1.2.04-1.81s-.01-1.22-.04-1.81c-.94-18.42-16.01-33.11-34.59-33.42-.21-.01-.43-.01-.64-.01-19.47,0-35.54,15.78-35.54,35.25v113.57c0,19.47,16.08,35.25,35.54,35.25-1.74,0-3.49.03-5.22.11-.08,0-.18-.01-.26-.01-.1,0-.21.01-.3.03h1.14c1.55.06,3.1.08,4.65.08s3.1-.03,4.65-.08h1.14c10.09.37,19.94,1.74,29.44,4.04,7.92,1.9,15.6,4.43,22.97,7.55,23.33,9.83,43.64,25.39,59.18,44.92,8.43,10.56,15.45,22.31,20.78,34.93,3.14,7.39,5.69,15.11,7.6,23.05,2.13,8.78,3.48,17.86,3.97,27.18v122.83h-.28c0,12.14-1.45,23.97-4.2,35.27-6.58,27.26-20.63,51.62-39.86,70.77-19.04,18.96-43.17,32.83-70.17,39.36-11.34,2.77-23.19,4.22-35.38,4.22s-24.05-1.45-35.39-4.22c-26.99-6.54-51.12-20.41-70.17-39.36-19.23-19.15-33.29-43.5-39.86-70.77-2.74-11.3-4.2-23.12-4.2-35.27,0-4.74.22-9.42.66-14.04,1.3-14.11,4.57-27.64,9.51-40.32.46-.66.93-1.32,1.43-1.95,10.4-13.8,26.93-22.72,45.55-22.72,31.5,0,57.05,25.55,57.05,57.05h.03v21.99h.29c0,19.48,15.78,35.27,35.25,35.27s34.6-15.13,35.22-34.06c.03-.4.03-.8.03-1.2s0-.8-.03-1.2v-111.95c.03-.4.03-.8.03-1.2s0-.8-.03-1.2c-.62-18.83-16.02-33.91-34.98-34.05v-.4h-.6v-.4c-12.13,0-23.91-1.45-35.2-4.2-7.71-1.84-15.18-4.31-22.36-7.32-23.66-9.9-44.22-25.73-59.83-45.62-8.27-10.52-15.15-22.18-20.35-34.71-2.98-7.14-5.41-14.58-7.26-22.24-2.71-11.24-4.15-22.98-4.15-35.06h-.55v-118.84c.26-10.77,1.68-21.27,4.11-31.36h0s0-.01.01-.01c-.01-.01-.01-.04.01-.06,13.11-54.46,55.94-97.34,110.37-110.53,8.24-2.02,16.75-3.34,25.48-3.9h20.13c8.61.55,17.02,1.86,25.16,3.82,54.58,13.11,97.55,56.05,110.69,110.62.03.01.03.04.01.06h.01c1.94,8.03,3.23,16.3,3.79,24.77v20.96c-.11,1.91-.29,3.79-.5,5.68,0,0,.01.01,0,.03-1.34,12.68-4.29,24.9-8.63,36.43,0,.01-.01.03-.01.04-1.04,1.62-2.15,3.18-3.34,4.68-10.45,13.22-26.63,21.7-44.78,21.7-31.51,0-57.05-25.53-57.05-57.05h-.21v-19.09Z" fill="#111a50"/><path d="M1898.6,1691.32c-2.05-29.8-26.86-53.31-57.16-53.31s-57.29,25.64-57.29,57.29l-.04,13.17v635.13h.08c0,12.1,1.45,23.88,4.2,35.17,1.88,7.8,4.39,15.34,7.46,22.61,3.09,7.35,6.77,14.41,10.97,21.12,16.34,26.18,40.57,46.98,69.3,59.09,7.23,3.03,14.73,5.52,22.49,7.41,11.38,2.8,23.26,4.26,35.47,4.26h252.36v-.47h33.04c26.72-3.49,47.64-25.39,49.61-52.57v-8.39c-.83-11.46-5.04-21.99-11.63-30.59-10.45-13.67-26.93-22.47-45.47-22.47v-.47h-25.55v.47h-67.08c-19.62,0-35.53-15.9-35.53-35.51h-.21v-35.25h31.38c1.3-.17,2.63-.26,3.99-.26.12-.01.25-.01.37-.01s.25,0,.37.01c12-.03,23.68-1.47,34.85-4.18,7.92-1.9,15.59-4.43,22.96-7.53,3.02-1.27,6-2.64,8.9-4.13,19.83-9.93,37.15-24.15,50.75-41.44,8.2-10.43,15.05-21.96,20.27-34.35,3.14-7.46,5.7-15.23,7.62-23.25,2.34-9.76,3.71-19.9,4.02-30.3v-9.28c-.32-10.77-1.79-21.27-4.28-31.35-10.58-42.95-39.7-78.6-78.37-97.99-10.02-5.04-20.7-8.99-31.86-11.66-8.28-2.01-16.84-3.32-25.6-3.86h-19.25c-8.93.55-17.67,1.9-26.11,3.97-54.3,13.25-97.17,56.02-110.31,110.33-2.74,11.28-4.2,23.07-4.2,35.2v220.84h-35.27v-.24c-18.87,0-34.28-14.83-35.24-33.47-.03-.6-.04-1.2-.04-1.81s.01-1.22.04-1.81v-333.01h-.26v-70.77h.26l.2-229.19-.2-17.16ZM2083.61,2157.92c0-18.73,15.06-34.06,33.56-35.18.72-.04,1.44-.07,2.17-.07s1.45.03,2.17.07c18.06,1.09,32.44,15.8,33.05,33.98.03.4.03.8.03,1.2s0,.8-.03,1.2c-.62,18.93-16.16,34.06-35.22,34.06,3.24,0,6.44.1,9.62.32h-45.36v-35.58Z" fill="#111a50"/><path d="M940.28,574.99c41.01-4.42,82.01-8.84,123.02-13.26l126.78-13.66v496.02c.19,10.31,1.33,20.33,3.38,30.05,12.73,60.59,59.63,108.62,119.61,122.93,6.67,1.58,13.53,2.76,20.49,3.48,5.56.59,11.21.9,16.92.9s11.36-.31,16.92-.9c7.02-.71,13.91-1.92,20.61-3.51,59.94-14.37,106.78-62.36,119.48-122.9,2.27-10.71,3.45-21.79,3.45-33.15h.09v-527.5l75.74-8.16h.03l16.08-1.74h.03c16.98,1.83,30.73,14.93,33.31,31.91v826.65c0,19.53-14.71,35.57-33.65,37.65h-539.26v-537.21h-.19c0-13.07-1.58-25.73-4.5-37.87-14.09-58.3-60.04-104.12-118.33-118.15-12.08-2.92-24.68-4.44-37.62-4.44s-25.42,1.52-37.44,4.41c-58.42,13.94-104.43,59.82-118.52,118.18-2.95,12.14-4.5,24.8-4.5,37.87v499.31c0,13.07,1.58,25.76,4.53,37.9,14.09,58.33,60.1,104.21,118.49,118.15,12.01,2.89,24.55,4.41,37.44,4.41v.47h696.15v-.22c12.88,0,25.42-1.52,37.41-4.41,58.48-13.94,104.55-59.94,118.58-118.39,2.92-12.08,4.44-24.68,4.44-37.65v-820.53c0-18.9-3.26-37.06-9.28-53.89-18.04-50.63-60.78-89.53-113.74-102.16-11.98-2.89-24.52-4.41-37.41-4.41-4.16,0-8.29.19-12.35.47-.12.03-.28.03-.4.06l-8.75.93h-.03l-66.24,7.14v-95.21c-.34-27.07-7.39-52.55-19.59-74.81-21.45-39.24-58.82-68.51-103.43-79.16-12.01-2.89-24.55-4.41-37.41-4.41s-25.49,1.55-37.53,4.44v-.09l-122.99,33.25-126.78,34.27-123.02,33.25-75.06,20.3v.09c-70.56,16.86-123.02,80.34-123.02,156.05,0,1.52,0,3.04.06,4.53.47,17.26,3.66,33.87,9.19,49.36,18.07,50.63,60.81,89.53,113.77,102.16,12.01,2.89,24.55,4.41,37.44,4.41,4.07,0,8.1-.16,12.08-.43,3.35-.36,6.71-.72,10.06-1.09,5.16-.56,10.33-1.12,15.49-1.68ZM1388,1044.07c-3.63,17.14-18.81,29.99-37.03,29.99-20.92,0-37.9-16.98-37.9-37.87v-501.36l74.94-8.07v517.32ZM1388,403.02l-74.94,8.07-67.08,7.23-2.05.22-53.86,5.8-126.78,13.66-1.49.16-121.53,13.1-27.78,3.01v-.03c-1.27.12-2.55.19-3.85.19-20.95,0-37.9-16.95-37.9-37.87,0-17.66,12.08-32.5,28.4-36.69l41.13-11.14,103.21-27.88,19.8-5.37,125.35-33.87,1.43-.4.12-.03,122.86-33.21,26.32-7.11,1.77-.47c2.39-.59,4.87-.93,7.42-1.02,20.89-.87,38.52,15.43,39.36,36.32,0,.53.03,1.02.03,1.55h.03v105.79ZM940.25,1399.81h-42.09c-.59-.07-1.18-.14-1.76-.24-18.13-2.87-31.18-19.02-31.18-37.38v-7.3s0-486.46,0-486.46c-.31-1.89-.47-3.85-.47-5.84s.16-3.94.47-5.87c2.79-18.13,18.5-32,37.44-32s35.54,14.68,37.62,33.65c.19,1.37.25,2.79.25,4.22s-.06,2.82-.25,4.22v495.37l-.03,37.62Z" fill="#111a50"/></svg>