<?xml version="1.0" encoding="UTF-8"?><svg id="Layer_7" xmlns="http://www.w3.org/2000/svg" viewBox="0 0 2000 2000"><rect x="149.67" y="149.67" width="1700.66" height="1700.66" rx="286.17" ry="286.17" transform="translate(0 2000) rotate(-90)" fill="#111a50"/><path d="M1099.51,780.55v374.98c-2.62,12.43-13.64,21.74-26.83,21.74-15.18,0-27.47-12.31-27.47-27.45v-363.43l54.31-5.85Z" fill="#ff914d"/><path d="M1361.88,752.25c-13.08-36.7-44.06-64.9-82.45-74.04-8.69-2.1-17.78-3.2-27.11-3.2-3.01,0-6.01.13-8.96.34-.09.01-.19.01-.29.03l-6.35.68h-.02l-48.01,5.17v-69.01c-.25-19.61-5.36-38.09-14.2-54.23-15.55-28.44-42.64-49.66-74.98-57.39-8.69-2.07-17.79-3.19-27.11-3.19s-18.47,1.12-27.2,3.22v-.06l-89.15,24.09-91.89,24.85-89.19,24.09-54.41,14.72v.06c-51.14,12.23-89.19,58.24-89.19,113.12,0,1.1,0,2.21.05,3.29.36,12.52,2.67,24.55,6.66,35.77,13.11,36.7,44.09,64.91,82.48,74.06,8.7,2.1,17.79,3.2,27.13,3.2,2.95,0,5.88-.1,8.76-.32,2.43-.26,4.86-.52,7.3-.78,3.74-.4,7.47-.81,11.22-1.22,29.72-3.21,59.44-6.42,89.19-9.61l91.89-9.9v359.55c.14,7.47.95,14.74,2.44,21.78,9.24,43.93,43.23,78.74,86.71,89.12,4.84,1.14,9.81,2.01,14.84,2.52,4.02.42,8.13.65,12.26.65s8.24-.23,12.28-.65c5.08-.52,10.08-1.4,14.92-2.56,43.45-10.41,77.43-45.19,86.62-89.08,1.64-7.76,2.5-15.79,2.5-24.04h.07v-382.36l54.9-5.91h.02l11.66-1.26h.01c12.32,1.32,22.29,10.82,24.15,23.12v599.23c0,14.14-10.66,25.79-24.39,27.29h-390.89v-389.41h-.14c0-9.48-1.16-18.66-3.27-27.46-10.22-42.25-43.52-75.47-85.78-85.64-8.75-2.11-17.88-3.21-27.28-3.21s-18.43,1.1-27.13,3.2c-42.35,10.1-75.7,43.36-85.91,85.66-2.14,8.8-3.28,17.98-3.28,27.46v361.95c0,9.47,1.16,18.66,3.29,27.46,10.21,42.28,43.58,75.53,85.9,85.64,8.7,2.09,17.79,3.2,27.13,3.2v.33h504.64v-.15c9.33,0,18.42-1.11,27.11-3.2,42.4-10.11,75.79-43.45,85.97-85.83,2.11-8.76,3.22-17.89,3.22-27.29v-594.79c0-13.72-2.37-26.87-6.74-39.07ZM1099.51,1155.53c-2.62,12.43-13.64,21.74-26.83,21.74-15.18,0-27.47-12.31-27.47-27.45v-363.43l54.31-5.86v374.99ZM1099.51,690.84l-54.31,5.86-48.63,5.25-1.48.15-39.04,4.21-91.89,9.9h-.11s-.99.13-.99.13l-79.52,8.56-8.56.92-20.14,2.19v-.02c-.93.09-1.86.14-2.8.14-7.6,0-14.48-3.07-19.43-8.05-4.97-4.96-8.05-11.83-8.05-19.41,0-12.8,8.76-23.57,20.59-26.6l29.82-8.08,74.81-20.2,14.37-3.9,90.86-24.55,1.03-.29.09-.02,89.06-24.08,19.08-5.16,1.27-.33c1.74-.42,3.53-.69,5.39-.74,3.15-.13,6.19.28,9.04,1.15.84.25,1.66.54,2.46.87,1.6.66,3.13,1.47,4.56,2.41.72.47,1.42.97,2.09,1.5,6.04,4.8,10.03,12.1,10.36,20.41,0,.38.03.72.03,1.12h.01v76.67ZM774.97,1027.04v359.09h-.02v27.45h-27.45c-1.04,0-2.07-.05-3.06-.18-11.97-1.33-21.62-10.32-23.88-21.98-.36-1.71-.52-3.5-.52-5.28s.16-3.58.52-5.3v-352.63c-.22-1.36-.34-2.77-.34-4.22s.13-2.87.34-4.26c2.03-13.14,13.41-23.2,27.13-23.2s25.77,10.65,27.28,24.4c.14.99.18,2.02.18,3.06s-.05,2.05-.18,3.05Z" fill="#fff"/><path d="M775.16,1024c0,1.03-.05,2.05-.18,3.05v359.09h-.02v27.45h-27.45c-1.04,0-2.07-.05-3.06-.18-11.97-1.33-21.62-10.32-23.88-21.98-.36-1.71-.52-3.5-.52-5.28s.16-3.58.52-5.3v-352.63c-.22-1.36-.34-2.77-.34-4.22s.13-2.87.34-4.26c2.03-13.14,13.41-23.2,27.13-23.2s25.77,10.65,27.28,24.4c.14.99.18,2.02.18,3.06Z" fill="#ff914d"/></svg>