<?xml version="1.0" encoding="UTF-8"?><svg id="Layer_6" xmlns="http://www.w3.org/2000/svg" viewBox="0 0 3000 2500"><path d="M339.45,948.3c31.79-3.42,63.57-6.85,95.36-10.27l98.27-10.59v384.48c.14,7.99,1.03,15.76,2.62,23.29,9.87,46.97,46.22,84.19,92.71,95.28,5.17,1.23,10.49,2.14,15.88,2.69,4.31.46,8.69.7,13.11.7s8.81-.24,13.11-.7c5.44-.55,10.78-1.49,15.98-2.72,46.46-11.14,82.77-48.34,92.61-95.26,1.76-8.3,2.67-16.89,2.67-25.7h.07v-408.88l58.71-6.33h.02l12.46-1.35h.02c13.16,1.42,23.82,11.57,25.82,24.74v640.76c0,15.13-11.41,27.57-26.08,29.19h-418v-416.41h-.14c0-10.13-1.23-19.95-3.49-29.36-10.92-45.19-46.54-80.7-91.72-91.58-9.36-2.26-19.13-3.44-29.16-3.44s-19.71,1.18-29.02,3.42c-45.28,10.8-80.94,46.37-91.87,91.6-2.29,9.41-3.49,19.23-3.49,29.36v387.03c0,10.13,1.23,19.97,3.51,29.38,10.92,45.21,46.58,80.78,91.84,91.58,9.31,2.24,19.03,3.42,29.02,3.42v.36h539.61v-.17c9.99,0,19.71-1.18,28.99-3.42,45.33-10.8,81.04-46.46,91.92-91.77,2.26-9.36,3.44-19.13,3.44-29.19v-636.02c0-14.65-2.53-28.73-7.19-41.77-13.98-39.24-47.11-69.39-88.16-79.19-9.29-2.24-19.01-3.42-28.99-3.42-3.22,0-6.42.14-9.58.36-.1.02-.22.02-.31.05l-6.79.72h-.02l-51.35,5.53v-73.8c-.26-20.98-5.73-40.74-15.18-57.99-16.63-30.41-45.6-53.1-80.17-61.36-9.31-2.24-19.03-3.42-28.99-3.42s-19.75,1.2-29.09,3.44v-.07l-95.33,25.77-98.27,26.56-95.36,25.77-58.18,15.74v.07c-54.69,13.07-95.36,62.27-95.36,120.96,0,1.18,0,2.36.05,3.51.36,13.38,2.84,26.25,7.12,38.26,14,39.24,47.14,69.39,88.19,79.19,9.31,2.24,19.03,3.42,29.02,3.42,3.15,0,6.28-.12,9.36-.34,2.6-.28,5.2-.56,7.8-.84,4-.43,8-.87,12.01-1.3ZM686.49,1311.9c-2.82,13.28-14.58,23.24-28.71,23.24-16.22,0-29.38-13.16-29.38-29.36v-388.62l58.08-6.26v400.99ZM686.49,815l-58.08,6.26-52,5.61-1.59.17-41.75,4.5-98.27,10.59-1.15.12-94.2,10.15-21.54,2.33v-.02c-.99.1-1.97.14-2.98.14-16.24,0-29.38-13.14-29.38-29.36,0-13.69,9.36-25.19,22.02-28.44l31.88-8.64,80.01-21.61,15.35-4.16,97.16-26.25,1.11-.31.1-.02,95.24-25.75,20.4-5.51,1.37-.36c1.85-.46,3.78-.72,5.75-.79,16.19-.67,29.86,11.96,30.51,28.15,0,.41.02.79.02,1.2h.02v82ZM281.27,1552.83v-377.07c-.24-1.47-.36-2.98-.36-4.52s.12-3.06.36-4.55c2.17-14.05,14.34-24.81,29.02-24.81s27.55,11.38,29.16,26.08c.14,1.06.19,2.17.19,3.27s-.05,2.19-.19,3.27v383.98h-.02c0,15.11-11.41,27.55-26.08,29.16-1.08.14-2.17.19-3.27.19s-2.21-.05-3.27-.19c-3.84-.43-7.46-1.59-10.7-3.35-9.34-5.06-14.82-15.17-14.82-25.8v-5.67Z" fill="#111a50"/><path d="M2337.27,1260.8c-11.13-46.41-47.69-82.93-94.12-94-9.51-2.29-19.45-3.49-29.66-3.49h-60.84c-10.34,0-20.4,1.24-30.02,3.57-46.26,11.17-82.67,47.62-93.77,93.92-2.31,9.56-3.53,19.55-3.53,29.82h-.2v161.75c-.05-1.2-.06-2.41-.06-3.62v-.39h-.17c0,16.58-13.44,30.02-30.02,30.02s-29.75-13.16-30.02-29.5c-.01-.18-.01-.34-.01-.52s0-.35.01-.52v-157.07h-.02c0-10.33-1.23-20.36-3.55-29.97-11.15-46.35-47.61-82.82-93.93-94.01-8.11-1.98-16.52-3.16-25.16-3.48h-9.86c-8.67.32-17.11,1.51-25.24,3.49-46.29,11.22-82.71,47.69-93.85,94-2.32,9.61-3.55,19.64-3.55,29.97h-.09v157.81h-.04c0,16.71-13.53,30.24-30.24,30.24h-157.53c-16.19,0-29.4-12.7-30.22-28.68-.02-.52-.04-1.04-.04-1.56s.01-1.04.04-1.56v-28.46h26.5c1.11-.14,2.24-.22,3.4-.22.11-.01.21-.01.32-.01s.21,0,.32.01c10.23-.02,20.18-1.26,29.72-3.57,1.58-.37,3.16-.78,4.72-1.21,4.93-1.4,9.73-3.08,14.4-5.03,20.23-8.44,37.81-21.96,51.18-38.95,6.98-8.88,12.82-18.7,17.26-29.25,2.02-4.77,3.74-9.69,5.18-14.74.41-1.49.81-2.99,1.17-4.52,2.25-9.2,3.49-18.78,3.61-28.64v-3.29c-.11-9.75-1.32-19.23-3.53-28.33-11.15-46.36-47.63-82.85-93.98-94.02-8.1-1.97-16.49-3.15-25.11-3.47h-9.86c-8.68.32-17.13,1.52-25.29,3.51-46.24,11.25-82.73,47.74-93.98,93.98-1.99,8.15-3.2,16.6-3.51,25.28v162.28h.14c0,10.49,1.26,20.69,3.67,30.47,1.6,6.59,3.73,12.97,6.31,19.12h0c2.65,6.32,5.8,12.37,9.4,18.11,13.89,22.28,34.44,39.99,58.84,50.31,6.15,2.59,12.54,4.72,19.14,6.32,9.68,2.38,19.81,3.63,30.22,3.63h157.53v-.39c10.43,0,20.57-1.25,30.28-3.63,6.53-1.57,12.86-3.67,18.96-6.21h.01c24.42-10.23,44.97-27.84,58.88-50.02,3.67-5.81,6.85-11.94,9.54-18.35,2.56-6.07,4.65-12.38,6.22-18.89,2.41-9.76,3.68-19.96,3.68-30.47h.2v-29.79h60.26v33.08c.24,9.35,1.47,18.44,3.63,27.18,1.59,6.57,3.71,12.93,6.3,19.05,2.66,6.34,5.84,12.42,9.47,18.18,13.96,22.27,34.62,39.91,59.14,50.12,6.1,2.55,12.44,4.62,18.97,6.19,9.33,2.26,19.05,3.86,29.05,3.95h1.95c10.08-.09,19.88-1.71,29.26-4.01,6.63-1.6,13.05-3.73,19.22-6.33,10.52-4.42,20.31-10.21,29.17-17.17,8.93,7.09,18.83,12.98,29.47,17.48,6.3,2.66,12.85,4.83,19.63,6.46,1.46.35,2.92.68,4.41.98,8.28,1.7,16.84,2.58,25.61,2.58h90.5v182.66c.31,1.7.46,3.45.46,5.23s-.15,3.54-.46,5.23c-2.48,14.15-14.82,24.89-29.66,24.89h-60.84c-15.81,0-28.77-12.18-30.02-27.66-.07-.81-.11-1.64-.11-2.46s.04-1.65.11-2.46v-16.15c0-3.97-.48-7.83-1.39-11.52-2.97-12.1-10.5-22.42-20.66-29.09-7.72-5.07-16.94-8.02-26.83-8.02-16.75,0-31.54,8.48-40.27,21.39-3.18,4.72-5.58,10.02-6.96,15.72-.91,3.69-1.38,7.55-1.38,11.52,0,2.43.18,4.82.53,7.16-.31,3.57-.46,7.18-.46,10.82,0,10.61,1.3,20.92,3.75,30.76,11.38,45.89,47.65,81.95,93.67,93.01,9.59,2.31,19.59,3.54,29.89,3.54v.96h60.97v-1.08c10.21,0,20.15-1.2,29.66-3.49,46.04-10.99,82.35-47.03,93.74-92.93,2.46-9.84,3.76-20.15,3.76-30.76v-478.86c-.37-8.19-1.52-16.19-3.38-23.91ZM1491.61,1290.9h.06c0-16.03,12.51-29.14,28.3-30.1.61-.04,1.24-.06,1.86-.06s1.25.02,1.86.06c14.91.91,26.9,12.65,28.18,27.47.08.87.12,1.75.12,2.63s-.04,1.76-.12,2.63c-1.23,14.22-12.31,25.63-26.4,27.32,1.52.04,3.04.11,4.55.21h-7.68c-.18.01-.34.01-.52.01s-.34,0-.52-.01h-29.7v-30.16ZM1867.38,1321.06h-60.26v-30.16h.08c0-16.61,13.48-30.09,30.09-30.09s30.09,13.48,30.09,30.09v30.16ZM2243.15,1450.55c-.96,15.78-14.05,28.27-30.06,28.27h-60.38c-16.61,0-30.08-13.46-30.08-30.08v-157.98c0-15.95,12.45-29,28.17-29.96.61-.04,1.23-.06,1.85-.06s1.24.02,1.85.06h55.35c1.04-.11,2.1-.17,3.17-.17s2.13.06,3.17.17c15.15,1.59,26.95,14.4,26.95,29.96v156.06c.04.61.06,1.24.06,1.86s-.02,1.25-.06,1.86Z" fill="#111a50"/><path d="M1236.36,1098.36c.02-.51.04-1.03.04-1.54s-.01-1.04-.04-1.54c-.8-15.68-13.63-28.19-29.45-28.46-.18-.01-.37-.01-.54-.01-16.58,0-30.26,13.44-30.26,30.02v96.7c0,16.58,13.69,30.02,30.26,30.02-1.49,0-2.97.02-4.44.09-.07,0-.15-.01-.22-.01-.08,0-.18.01-.26.02h.97c1.32.05,2.64.07,3.96.07s2.64-.02,3.96-.07h.97c8.59.32,16.98,1.49,25.07,3.44,6.74,1.62,13.29,3.77,19.56,6.43,19.87,8.37,37.16,21.62,50.39,38.25,7.18,9,13.16,18.99,17.7,29.75,2.68,6.3,4.85,12.86,6.47,19.63,1.82,7.47,2.96,15.21,3.38,23.14v104.59h-.24c0,10.34-1.24,20.41-3.57,30.03-5.6,23.21-17.57,43.95-33.94,60.26-16.21,16.14-36.76,27.95-59.75,33.52-9.66,2.36-19.75,3.6-30.12,3.6s-20.48-1.24-30.14-3.6c-22.98-5.56-43.53-17.38-59.75-33.52-16.38-16.31-28.34-37.04-33.94-60.26-2.33-9.62-3.57-19.69-3.57-30.03,0-4.03.19-8.02.57-11.96,1.11-12.01,3.89-23.53,8.1-34.33.39-.57.79-1.12,1.21-1.66,8.85-11.75,22.93-19.35,38.79-19.35,26.82,0,48.57,21.75,48.57,48.57h.02v18.72h.25c0,16.59,13.44,30.03,30.02,30.03s29.46-12.89,29.99-29c.02-.34.02-.68.02-1.03s0-.68-.02-1.03v-95.32c.02-.34.02-.68.02-1.03s0-.68-.02-1.03c-.53-16.03-13.64-28.87-29.78-28.99v-.34h-.51v-.34c-10.33,0-20.36-1.24-29.97-3.57-6.57-1.57-12.92-3.67-19.04-6.24-20.15-8.43-37.66-21.91-50.94-38.85-7.04-8.96-12.9-18.89-17.33-29.56-2.53-6.08-4.61-12.41-6.18-18.93-2.31-9.57-3.54-19.57-3.54-29.85h-.47v-101.19c.22-9.17,1.43-18.11,3.5-26.7h0s0-.01.01-.01c-.01-.01-.01-.04.01-.05,11.17-46.37,47.63-82.88,93.98-94.12,7.02-1.72,14.27-2.84,21.69-3.32h17.14c7.33.47,14.49,1.58,21.42,3.25,46.48,11.17,83.06,47.73,94.25,94.19.02.01.02.04.01.05h.01c1.65,6.84,2.75,13.88,3.23,21.09v17.85c-.09,1.63-.25,3.23-.42,4.83,0,0,.01.01,0,.02-1.14,10.8-3.65,21.2-7.35,31.02,0,.01-.01.02-.01.04-.88,1.38-1.83,2.71-2.84,3.98-8.9,11.26-22.67,18.47-38.13,18.47-26.83,0-48.57-21.74-48.57-48.57h-.18v-16.26Z" fill="#111a50"/><path d="M2498.62,893.45c-1.74-25.37-22.87-45.39-48.67-45.39s-48.79,21.83-48.79,48.79l-.04,11.21v540.82h.07c0,10.3,1.24,20.34,3.57,29.95,1.6,6.64,3.74,13.06,6.35,19.25,2.63,6.26,5.77,12.27,9.34,17.98,13.91,22.29,34.54,40,59.01,50.32,6.15,2.58,12.54,4.7,19.15,6.31,9.69,2.38,19.81,3.63,30.21,3.63h214.88v-.4h28.13c22.75-2.97,40.57-21.62,42.24-44.77v-7.14c-.71-9.76-4.29-18.72-9.9-26.04-8.9-11.64-22.93-19.14-38.72-19.14v-.4h-21.75v.4h-57.12c-16.71,0-30.25-13.53-30.25-30.24h-.18v-30.02h26.72c1.11-.14,2.24-.22,3.4-.22.11-.01.21-.01.32-.01s.21,0,.32.01c10.22-.02,20.16-1.25,29.67-3.56,6.74-1.62,13.28-3.77,19.55-6.41,2.57-1.08,5.11-2.25,7.58-3.51,16.88-8.45,31.63-20.56,43.21-35.29,6.98-8.88,12.82-18.7,17.26-29.25,2.68-6.35,4.86-12.97,6.48-19.8,1.99-8.31,3.16-16.94,3.42-25.8v-7.9c-.27-9.17-1.52-18.11-3.64-26.69-9.01-36.57-33.8-66.93-66.73-83.44-8.54-4.29-17.63-7.65-27.13-9.93-7.05-1.71-14.34-2.83-21.8-3.29h-16.39c-7.6.47-15.04,1.62-22.24,3.38-46.24,11.28-82.74,47.7-93.93,93.94-2.33,9.61-3.57,19.64-3.57,29.97v188.05h-30.03v-.2c-16.07,0-29.19-12.63-30.01-28.5-.02-.51-.04-1.03-.04-1.54s.01-1.04.04-1.54v-283.56h-.22v-60.26h.22l.17-195.16-.17-14.61ZM2656.16,1290.76c0-15.95,12.83-29,28.58-29.96.61-.04,1.23-.06,1.85-.06s1.24.02,1.85.06c15.37.93,27.62,13.45,28.14,28.93.02.34.02.68.02,1.03s0,.68-.02,1.03c-.53,16.12-13.76,29-29.99,29,2.76,0,5.48.08,8.19.27h-38.62v-30.3Z" fill="#111a50"/></svg>